<svg data-v-423bf9ae="" xmlns="http://www.w3.org/2000/svg" viewBox="0 0 327.83331821877306 60" class="font"><!----><!----><!----><g data-v-423bf9ae="" id="9d34faaf-884d-4fb3-9d5a-4edffbe3b851" fill="white" transform="matrix(5.555555457440915,0,0,5.555555457440915,-4.277774966302843,-15.666665303854302)"><path d="M0.77 13.45L0.77 11.58L1.83 11.58L1.83 4.97L0.77 4.97L0.77 3.08L5.82 3.09L5.82 3.09Q6.53 3.09 7.11 3.34L7.11 3.34L7.11 3.34Q7.70 3.59 8.12 4.02L8.12 4.02L8.12 4.02Q8.54 4.44 8.78 5.01L8.78 5.01L8.78 5.01Q9.02 5.58 9.02 6.23L9.02 6.23L9.02 6.23Q9.02 6.98 8.75 7.47L8.75 7.47L8.75 7.47Q8.49 7.96 8.00 8.26L8.00 8.26L8.00 8.26Q8.52 8.59 8.81 9.07L8.81 9.07L8.81 9.07Q9.11 9.56 9.11 10.25L9.11 10.25L9.11 10.25Q9.11 10.95 8.87 11.54L8.87 11.54L8.87 11.54Q8.63 12.13 8.21 12.55L8.21 12.55L8.21 12.55Q7.79 12.98 7.21 13.22L7.21 13.22L7.21 13.22Q6.64 13.45 5.97 13.45L5.97 13.45L0.77 13.45ZM5.82 9.17L4.10 9.17L4.10 11.58L5.82 11.58L5.82 11.58Q6.02 11.58 6.20 11.48L6.20 11.48L6.20 11.48Q6.37 11.38 6.50 11.21L6.50 11.21L6.50 11.21Q6.62 11.04 6.70 10.82L6.70 10.82L6.70 10.82Q6.77 10.60 6.77 10.36L6.77 10.36L6.77 10.36Q6.77 10.10 6.70 9.89L6.70 9.89L6.70 9.89Q6.62 9.67 6.49 9.51L6.49 9.51L6.49 9.51Q6.36 9.35 6.19 9.26L6.19 9.26L6.19 9.26Q6.02 9.17 5.82 9.17L5.82 9.17ZM5.73 4.97L4.10 4.97L4.10 7.29L5.73 7.29L5.73 7.29Q5.92 7.29 6.09 7.20L6.09 7.20L6.09 7.20Q6.26 7.10 6.39 6.94L6.39 6.94L6.39 6.94Q6.51 6.78 6.59 6.58L6.59 6.58L6.59 6.58Q6.67 6.38 6.67 6.16L6.67 6.16L6.67 6.16Q6.67 5.95 6.59 5.74L6.59 5.74L6.59 5.74Q6.51 5.52 6.39 5.35L6.39 5.35L6.39 5.35Q6.26 5.18 6.09 5.08L6.09 5.08L6.09 5.08Q5.92 4.97 5.73 4.97L5.73 4.97ZM9.97 9.88L9.97 9.88L9.97 9.88Q9.97 9.11 10.25 8.44L10.25 8.44L10.25 8.44Q10.53 7.76 11.03 7.25L11.03 7.25L11.03 7.25Q11.53 6.75 12.22 6.45L12.22 6.45L12.22 6.45Q12.91 6.16 13.73 6.16L13.73 6.16L13.73 6.16Q14.56 6.16 15.25 6.45L15.25 6.45L15.25 6.45Q15.95 6.75 16.45 7.25L16.45 7.25L16.45 7.25Q16.95 7.76 17.22 8.44L17.22 8.44L17.22 8.44Q17.50 9.11 17.50 9.88L17.50 9.88L17.50 9.88Q17.50 10.66 17.23 11.34L17.23 11.34L17.23 11.34Q16.96 12.02 16.46 12.53L16.46 12.53L16.46 12.53Q15.97 13.04 15.27 13.33L15.27 13.33L15.27 13.33Q14.58 13.62 13.73 13.62L13.73 13.62L13.73 13.62Q12.88 13.62 12.19 13.33L12.19 13.33L12.19 13.33Q11.49 13.04 11.00 12.53L11.00 12.53L11.00 12.53Q10.51 12.02 10.24 11.34L10.24 11.34L10.24 11.34Q9.97 10.66 9.97 9.88ZM12.01 9.88L12.01 9.88L12.01 9.88Q12.01 10.29 12.15 10.63L12.15 10.63L12.15 10.63Q12.28 10.96 12.52 11.21L12.52 11.21L12.52 11.21Q12.76 11.46 13.07 11.59L13.07 11.59L13.07 11.59Q13.38 11.73 13.73 11.73L13.73 11.73L13.73 11.73Q14.10 11.73 14.41 11.60L14.41 11.60L14.41 11.60Q14.72 11.46 14.95 11.22L14.95 11.22L14.95 11.22Q15.18 10.97 15.31 10.63L15.31 10.63L15.31 10.63Q15.44 10.29 15.44 9.88L15.44 9.88L15.44 9.88Q15.44 9.46 15.31 9.12L15.31 9.12L15.31 9.12Q15.18 8.78 14.95 8.54L14.95 8.54L14.95 8.54Q14.72 8.30 14.41 8.17L14.41 8.17L14.41 8.17Q14.10 8.05 13.73 8.05L13.73 8.05L13.73 8.05Q13.38 8.05 13.07 8.17L13.07 8.17L13.07 8.17Q12.76 8.30 12.52 8.54L12.52 8.54L12.52 8.54Q12.28 8.78 12.15 9.12L12.15 9.12L12.15 9.12Q12.01 9.46 12.01 9.88ZM18.48 9.88L18.48 9.88L18.48 9.88Q18.48 9.11 18.76 8.44L18.76 8.44L18.76 8.44Q19.04 7.76 19.54 7.25L19.54 7.25L19.54 7.25Q20.04 6.75 20.73 6.45L20.73 6.45L20.73 6.45Q21.42 6.16 22.24 6.16L22.24 6.16L22.24 6.16Q23.07 6.16 23.77 6.45L23.77 6.45L23.77 6.45Q24.46 6.75 24.96 7.25L24.96 7.25L24.96 7.25Q25.46 7.76 25.73 8.44L25.73 8.44L25.73 8.44Q26.01 9.11 26.01 9.88L26.01 9.88L26.01 9.88Q26.01 10.66 25.74 11.34L25.74 11.34L25.74 11.34Q25.47 12.02 24.98 12.53L24.98 12.53L24.98 12.53Q24.48 13.04 23.79 13.33L23.79 13.33L23.79 13.33Q23.09 13.62 22.24 13.62L22.24 13.62L22.24 13.62Q21.39 13.62 20.70 13.33L20.70 13.33L20.70 13.33Q20.00 13.04 19.51 12.53L19.51 12.53L19.51 12.53Q19.02 12.02 18.75 11.34L18.75 11.34L18.75 11.34Q18.48 10.66 18.48 9.88ZM20.52 9.88L20.52 9.88L20.52 9.88Q20.52 10.29 20.66 10.63L20.66 10.63L20.66 10.63Q20.79 10.96 21.03 11.21L21.03 11.21L21.03 11.21Q21.27 11.46 21.58 11.59L21.58 11.59L21.58 11.59Q21.89 11.73 22.24 11.73L22.24 11.73L22.24 11.73Q22.61 11.73 22.92 11.60L22.92 11.60L22.92 11.60Q23.23 11.46 23.46 11.22L23.46 11.22L23.46 11.22Q23.69 10.97 23.82 10.63L23.82 10.63L23.82 10.63Q23.95 10.29 23.95 9.88L23.95 9.88L23.95 9.88Q23.95 9.46 23.82 9.12L23.82 9.12L23.82 9.12Q23.69 8.78 23.46 8.54L23.46 8.54L23.46 8.54Q23.23 8.30 22.92 8.17L22.92 8.17L22.92 8.17Q22.61 8.05 22.24 8.05L22.24 8.05L22.24 8.05Q21.89 8.05 21.58 8.17L21.58 8.17L21.58 8.17Q21.27 8.30 21.03 8.54L21.03 8.54L21.03 8.54Q20.79 8.78 20.66 9.12L20.66 9.12L20.66 9.12Q20.52 9.46 20.52 9.88ZM26.90 4.69L26.90 2.82L30.09 2.82L30.09 11.58L31.19 11.58L31.19 13.45L26.90 13.45L26.90 11.58L27.99 11.58L27.99 4.69L26.90 4.69ZM32.60 13.45L32.60 11.58L33.66 11.58L33.66 4.97L32.60 4.97L32.60 3.08L37.65 3.09L37.65 3.09Q38.36 3.09 38.94 3.34L38.94 3.34L38.94 3.34Q39.53 3.59 39.95 4.02L39.95 4.02L39.95 4.02Q40.37 4.44 40.61 5.01L40.61 5.01L40.61 5.01Q40.84 5.58 40.84 6.23L40.84 6.23L40.84 6.23Q40.84 6.98 40.58 7.47L40.58 7.47L40.58 7.47Q40.32 7.96 39.83 8.26L39.83 8.26L39.83 8.26Q40.35 8.59 40.64 9.07L40.64 9.07L40.64 9.07Q40.94 9.56 40.94 10.25L40.94 10.25L40.94 10.25Q40.94 10.95 40.70 11.54L40.70 11.54L40.70 11.54Q40.46 12.13 40.03 12.55L40.03 12.55L40.03 12.55Q39.61 12.98 39.04 13.22L39.04 13.22L39.04 13.22Q38.47 13.45 37.80 13.45L37.80 13.45L32.60 13.45ZM37.65 9.17L35.93 9.17L35.93 11.58L37.65 11.58L37.65 11.58Q37.85 11.58 38.02 11.48L38.02 11.48L38.02 11.48Q38.20 11.38 38.33 11.21L38.33 11.21L38.33 11.21Q38.45 11.04 38.53 10.82L38.53 10.82L38.53 10.82Q38.60 10.60 38.60 10.36L38.60 10.36L38.60 10.36Q38.60 10.10 38.53 9.89L38.53 9.89L38.53 9.89Q38.45 9.67 38.32 9.51L38.32 9.51L38.32 9.51Q38.19 9.35 38.02 9.26L38.02 9.26L38.02 9.26Q37.84 9.17 37.65 9.17L37.65 9.17ZM37.56 4.97L35.93 4.97L35.93 7.29L37.56 7.29L37.56 7.29Q37.75 7.29 37.92 7.20L37.92 7.20L37.92 7.20Q38.09 7.10 38.22 6.94L38.22 6.94L38.22 6.94Q38.34 6.78 38.42 6.58L38.42 6.58L38.42 6.58Q38.49 6.38 38.49 6.16L38.49 6.16L38.49 6.16Q38.49 5.95 38.42 5.74L38.42 5.74L38.42 5.74Q38.34 5.52 38.22 5.35L38.22 5.35L38.22 5.35Q38.09 5.18 37.92 5.08L37.92 5.08L37.92 5.08Q37.75 4.97 37.56 4.97L37.56 4.97ZM47.67 13.45L47.67 9.38L47.67 9.38Q47.67 8.78 47.36 8.45L47.36 8.45L47.36 8.45Q47.04 8.11 46.53 8.11L46.53 8.11L46.53 8.11Q46.17 8.11 45.81 8.26L45.81 8.26L45.81 8.26Q45.45 8.42 45.10 8.85L45.10 8.85L45.10 11.58L46.25 11.58L46.25 13.45L41.85 13.45L41.85 11.58L42.89 11.58L42.89 8.24L41.86 8.24L41.86 6.37L45.09 6.37L45.09 6.99L45.09 6.99Q45.53 6.64 46.08 6.44L46.08 6.44L46.08 6.44Q46.63 6.24 47.24 6.24L47.24 6.24L47.24 6.24Q48.52 6.24 49.21 6.96L49.21 6.96L49.21 6.96Q49.90 7.67 49.90 9.04L49.90 9.04L49.90 11.58L50.91 11.58L50.91 13.45L47.67 13.45ZM51.48 4.69L51.48 2.82L54.57 2.82L54.57 6.53L54.57 6.53Q54.94 6.35 55.33 6.25L55.33 6.25L55.33 6.25Q55.72 6.16 56.13 6.16L56.13 6.16L56.13 6.16Q56.92 6.16 57.59 6.45L57.59 6.45L57.59 6.45Q58.26 6.75 58.74 7.25L58.74 7.25L58.74 7.25Q59.23 7.76 59.50 8.44L59.50 8.44L59.50 8.44Q59.78 9.11 59.78 9.87L59.78 9.87L59.78 9.87Q59.78 10.64 59.51 11.31L59.51 11.31L59.51 11.31Q59.24 11.99 58.75 12.49L58.75 12.49L58.75 12.49Q58.27 13.00 57.60 13.29L57.60 13.29L57.60 13.29Q56.93 13.58 56.13 13.58L56.13 13.58L56.13 13.58Q55.70 13.58 55.31 13.49L55.31 13.49L55.31 13.49Q54.92 13.41 54.57 13.26L54.57 13.26L54.57 13.45L52.47 13.45L52.47 4.69L51.48 4.69ZM55.99 8.05L55.99 8.05L55.99 8.05Q55.54 8.05 55.18 8.25L55.18 8.25L55.18 8.25Q54.82 8.46 54.57 8.84L54.57 8.84L54.57 10.96L54.57 10.96Q54.79 11.29 55.16 11.49L55.16 11.49L55.16 11.49Q55.52 11.69 55.97 11.69L55.97 11.69L55.97 11.69Q56.32 11.69 56.64 11.56L56.64 11.56L56.64 11.56Q56.95 11.44 57.19 11.20L57.19 11.20L57.19 11.20Q57.42 10.96 57.56 10.63L57.56 10.63L57.56 10.63Q57.70 10.30 57.70 9.88L57.70 9.88L57.70 9.88Q57.70 9.46 57.56 9.12L57.56 9.12L57.56 9.12Q57.42 8.78 57.19 8.54L57.19 8.54L57.19 8.54Q56.96 8.30 56.65 8.17L56.65 8.17L56.65 8.17Q56.33 8.05 55.99 8.05Z"></path></g><!----><!----></svg>